<?xml version="1.0" standalone="no"?>
<!DOCTYPE svg PUBLIC "-//W3C//DTD SVG 20010904//EN"
 "http://www.w3.org/TR/2001/REC-SVG-20010904/DTD/svg10.dtd">
<svg version="1.0" xmlns="http://www.w3.org/2000/svg"
 width="531.000000pt" height="531.000000pt" viewBox="0 0 531.000000 531.000000"
 preserveAspectRatio="xMidYMid meet">

<g transform="translate(0.000000,531.000000) scale(0.100000,-0.100000)"
fill="#000000" stroke="none">
<path d="M2450 5283 c-676 -71 -1204 -316 -1656 -767 -430 -431 -684 -954
-758 -1566 -20 -164 -14 -515 12 -686 108 -697 471 -1304 1032 -1723 194 -145
444 -281 675 -367 125 -46 364 -106 515 -129 236 -35 589 -31 835 11 708 120
1346 536 1750 1144 87 131 227 407 280 554 43 118 97 325 119 456 92 562 10
1120 -242 1622 -266 534 -721 973 -1262 1219 -345 157 -666 228 -1055 233
-115 2 -226 1 -245 -1z m242 -1378 c133 -28 523 -195 585 -251 58 -52 153
-178 189 -249 59 -120 64 -167 60 -566 l-3 -354 -30 -91 c-35 -108 -65 -148
-156 -215 -85 -62 -110 -98 -208 -289 -76 -151 -80 -156 -136 -192 -32 -20
-85 -60 -118 -88 -171 -146 -292 -140 -488 25 -43 36 -101 80 -130 99 -46 30
-55 41 -81 107 -44 111 -114 260 -134 282 -9 11 -44 42 -77 70 -90 75 -120
120 -150 222 -27 89 -27 95 -31 439 -4 465 8 528 141 706 105 141 129 157 415
279 80 34 154 66 165 71 31 14 107 11 187 -5z"/>
</g>
</svg>
